<svg xmlns="http://www.w3.org/2000/svg" width="511" height="512.214" viewBox="0 0 511 512.214">
  <g id="logo-sm" transform="translate(-362 -1372)">
    <g id="Rectangle_6" data-name="Rectangle 6" transform="translate(362 1372)" fill="#ffc300" stroke="#000" stroke-width="23">
      <rect width="511" height="511" rx="117" stroke="none"/>
      <rect x="11.5" y="11.5" width="488" height="488" rx="105.5" fill="none"/>
    </g>
    <g id="Group_11" data-name="Group 11">
      <g id="Polygon_1" data-name="Polygon 1" transform="translate(667.09 1372) rotate(60)" fill="#ffc300">
        <path d="M 285.3847351074219 324.5 L 108.6152496337891 324.5 L 20.19565963745117 171 L 108.6152496337891 17.5 L 285.3847351074219 17.5 L 373.8043518066406 171 L 285.3847351074219 324.5 Z" stroke="none"/>
        <path d="M 118.7305603027344 35 L 40.391357421875 171 L 118.7305603027344 307 L 275.2694702148438 307 L 353.608642578125 171 L 275.2694702148438 35 L 118.7305603027344 35 M 98.5 0 L 295.5 0 L 394 171 L 295.5 342 L 98.5 342 L 0 171 L 98.5 0 Z" stroke="none" fill="#000"/>
      </g>
      <rect id="Rectangle_7" data-name="Rectangle 7" width="405" height="129" transform="translate(410.704 1677.115) rotate(-31)" fill="#ffc300"/>
    </g>
    <g id="Group_12" data-name="Group 12" transform="matrix(0.485, 0.875, -0.875, 0.485, 1681.461, 504.726)">
      <g id="Polygon_1-2" data-name="Polygon 1" transform="translate(495.123 1372) rotate(60)" fill="#ffc300">
        <path d="M 115.2574005126953 128.4289398193359 L 49.97944259643555 128.4289398193359 L 17.31058311462402 71.7144775390625 L 49.97947692871094 15.00001335144043 L 115.2574005126953 15.00001335144043 L 147.92626953125 71.7144775390625 L 115.2574005126953 128.4289398193359 Z" stroke="none"/>
        <path d="M 58.64968109130859 29.99997711181641 L 34.62112426757813 71.71450805664063 L 58.64960479736328 113.4289245605469 L 106.5871887207031 113.4289245605469 L 130.6156921386719 71.71446990966797 L 106.5871887207031 29.99997711181641 L 58.64968109130859 29.99997711181641 M 41.30922698974609 -1.52587890625e-05 L 123.9276275634766 -1.52587890625e-05 L 165.23681640625 71.7144775390625 L 123.9276275634766 143.4289245605469 L 41.30917358398438 143.4289245605469 L -3.0517578125e-05 71.7144775390625 L 41.30922698974609 -1.52587890625e-05 Z" stroke="none" fill="#000"/>
      </g>
      <rect id="Rectangle_7-2" data-name="Rectangle 7" width="169.85" height="54.1" transform="translate(387.599 1499.96) rotate(-31)" fill="#ffc300"/>
    </g>
  </g>
</svg>
